<svg width="174" height="20" viewBox="0 0 174 20" fill="none" xmlns="http://www.w3.org/2000/svg">
<path d="M0.0366951 19L3.15578 0.212122H16.6963L15.9991 4.32197H7.55919L7.04545 7.55114H14.7881L14.0909 11.661H6.34825L5.83452 14.8902H14.2377L13.5405 19H0.0366951ZM24.3632 0.212122L21.2442 19H16.1802L19.2993 0.212122H24.3632ZM30.5395 19.2569C29.035 19.2569 27.7873 18.9694 26.7966 18.3945C25.8058 17.8135 25.1086 16.9818 24.705 15.8993C24.3013 14.8106 24.2279 13.508 24.4848 11.9912C24.7294 10.5357 25.234 9.26357 25.9985 8.17495C26.7691 7.08633 27.7384 6.23929 28.9065 5.63382C30.0808 5.02835 31.3957 4.72562 32.8513 4.72562C33.9154 4.72562 34.8481 4.89074 35.6493 5.221C36.4566 5.55126 37.114 6.03135 37.6216 6.66128C38.1292 7.29121 38.4717 8.05264 38.6491 8.94555C38.8326 9.83235 38.8326 10.8353 38.6491 11.9545L38.4656 13.1288H25.8792L26.3195 10.34H34.2457C34.3068 9.93632 34.2671 9.5816 34.1264 9.27581C33.9919 8.9639 33.7748 8.72232 33.4751 8.55108C33.1815 8.37372 32.8268 8.28504 32.4109 8.28504C31.995 8.28504 31.6036 8.37372 31.2367 8.55108C30.8758 8.72844 30.567 8.97613 30.3101 9.29415C30.0594 9.61218 29.8912 9.98524 29.8056 10.4134L29.2551 13.349C29.1818 13.8015 29.2093 14.2052 29.3377 14.5599C29.4661 14.9146 29.6894 15.1929 30.0074 15.3947C30.3254 15.5965 30.7352 15.6974 31.2367 15.6974C31.5792 15.6974 31.9033 15.6516 32.2091 15.5598C32.521 15.462 32.7962 15.3213 33.0347 15.1378C33.2794 14.9483 33.4751 14.7189 33.6219 14.4498H38.2454C37.9152 15.4283 37.3923 16.2784 36.6767 17.0001C35.9673 17.7157 35.0927 18.2722 34.053 18.6697C33.0195 19.0612 31.8483 19.2569 30.5395 19.2569ZM46.2931 19.2569C44.7642 19.2569 43.5043 18.9541 42.5135 18.3487C41.5228 17.7371 40.8286 16.887 40.4311 15.7984C40.0336 14.7036 39.9571 13.4346 40.2017 11.9912C40.4341 10.5479 40.9295 9.28192 41.6879 8.1933C42.4524 7.09856 43.4309 6.24846 44.6235 5.64299C45.8222 5.03141 47.186 4.72562 48.715 4.72562C50.0972 4.72562 51.25 4.97637 52.1735 5.47787C53.1031 5.97325 53.7667 6.67657 54.1642 7.58783C54.5679 8.49298 54.6718 9.55713 54.4761 10.7803H49.7792C49.8342 10.0464 49.7149 9.48374 49.4214 9.09233C49.1339 8.70092 48.715 8.50521 48.1646 8.50521C47.712 8.50521 47.2961 8.63364 46.9169 8.89051C46.5439 9.14126 46.2228 9.5235 45.9537 10.0372C45.6907 10.5448 45.4981 11.1839 45.3758 11.9545C45.2534 12.7251 45.2381 13.3673 45.3299 13.881C45.4277 14.3887 45.6173 14.7709 45.8987 15.0278C46.1861 15.2785 46.55 15.4039 46.9903 15.4039C47.3695 15.4039 47.7181 15.3183 48.0361 15.147C48.3603 14.9697 48.6386 14.7128 48.871 14.3764C49.1095 14.0339 49.2899 13.6181 49.4122 13.1288H54.1092C53.8768 14.3764 53.4089 15.4589 52.7056 16.3763C52.0023 17.2937 51.1063 18.0031 50.0177 18.5046C48.9291 19.0061 47.6875 19.2569 46.2931 19.2569ZM65.9594 4.90909L65.3356 8.5786H56.0517L56.6755 4.90909H65.9594ZM59.024 1.53314H64.0879L61.9413 14.4682C61.9107 14.6639 61.9168 14.829 61.9596 14.9635C62.0024 15.092 62.0881 15.1898 62.2165 15.2571C62.351 15.3183 62.5284 15.3488 62.7486 15.3488C62.8954 15.3488 63.0758 15.3305 63.2898 15.2938C63.5039 15.251 63.666 15.2204 63.776 15.2021L63.9228 18.7615C63.666 18.8349 63.3204 18.9174 62.8862 19.0092C62.4581 19.107 61.9596 19.1712 61.3909 19.2018C60.2044 19.2569 59.2381 19.1315 58.4919 18.8257C57.7519 18.5199 57.2382 18.0429 56.9508 17.3946C56.6694 16.7402 56.6205 15.9237 56.804 14.9452L59.024 1.53314ZM65.6773 19L68.0258 4.90909H72.9429L72.5026 7.58783H72.6494C73.0714 6.59706 73.6004 5.87234 74.2364 5.41365C74.8725 4.95496 75.5666 4.72562 76.3189 4.72562C76.539 4.72562 76.75 4.74396 76.9519 4.78066C77.1598 4.81124 77.3647 4.85405 77.5665 4.90909L76.8326 9.23911C76.5941 9.14737 76.2975 9.08316 75.9427 9.04646C75.588 9.00365 75.2731 8.98224 74.9978 8.98224C74.5086 8.98224 74.0499 9.09539 73.6218 9.32167C73.1998 9.54184 72.839 9.85375 72.5393 10.2574C72.2457 10.6549 72.05 11.1228 71.9522 11.661L70.7412 19H65.6773ZM82.8231 19.2569C81.2941 19.2569 80.0343 18.9541 79.0435 18.3487C78.0588 17.7371 77.3677 16.887 76.9702 15.7984C76.5727 14.7036 76.4932 13.4346 76.7317 11.9912C76.9702 10.5479 77.4687 9.28192 78.227 8.1933C78.9854 7.09856 79.9609 6.24846 81.1535 5.64299C82.346 5.03141 83.7099 4.72562 85.245 4.72562C86.7678 4.72562 88.0215 5.03141 89.0062 5.64299C89.997 6.24846 90.6911 7.09856 91.0886 8.1933C91.4923 9.28192 91.5749 10.5479 91.3363 11.9912C91.0978 13.4346 90.5963 14.7036 89.8318 15.7984C89.0674 16.887 88.0888 17.7371 86.8962 18.3487C85.7098 18.9541 84.352 19.2569 82.8231 19.2569ZM83.4469 15.514C83.8872 15.514 84.2878 15.3702 84.6487 15.0828C85.0156 14.7954 85.3275 14.3856 85.5844 13.8535C85.8474 13.3214 86.04 12.6884 86.1623 11.9545C86.2846 11.2145 86.303 10.5815 86.2174 10.0556C86.1317 9.5235 85.9544 9.11374 85.6853 8.82629C85.4162 8.53885 85.0615 8.39512 84.6211 8.39512C84.1808 8.39512 83.7771 8.53885 83.4102 8.82629C83.0432 9.11374 82.7313 9.5235 82.4745 10.0556C82.2176 10.5815 82.028 11.2145 81.9057 11.9545C81.7834 12.6884 81.762 13.3214 81.8415 13.8535C81.9271 14.3856 82.1045 14.7954 82.3736 15.0828C82.6488 15.3702 83.0066 15.514 83.4469 15.514ZM95.2627 0.212122H101.611L104.216 10.8537H104.436L110.565 0.212122H116.913L113.794 19H108.803L110.601 8.13826H110.454L104.51 18.8532H101.501L99.1157 8.06487H98.9689L97.1342 19H92.1436L95.2627 0.212122ZM123 19.2569C121.495 19.2569 120.247 18.9694 119.257 18.3945C118.266 17.8135 117.569 16.9818 117.165 15.8993C116.761 14.8106 116.688 13.508 116.945 11.9912C117.19 10.5357 117.694 9.26357 118.459 8.17495C119.229 7.08633 120.199 6.23929 121.367 5.63382C122.541 5.02835 123.856 4.72562 125.311 4.72562C126.376 4.72562 127.308 4.89074 128.109 5.221C128.917 5.55126 129.574 6.03135 130.082 6.66128C130.589 7.29121 130.932 8.05264 131.109 8.94555C131.293 9.83235 131.293 10.8353 131.109 11.9545L130.926 13.1288H118.339L118.78 10.34H126.706C126.767 9.93632 126.727 9.5816 126.587 9.27581C126.452 8.9639 126.235 8.72232 125.935 8.55108C125.642 8.37372 125.287 8.28504 124.871 8.28504C124.455 8.28504 124.064 8.37372 123.697 8.55108C123.336 8.72844 123.027 8.97613 122.77 9.29415C122.519 9.61218 122.351 9.98524 122.266 10.4134L121.715 13.349C121.642 13.8015 121.669 14.2052 121.798 14.5599C121.926 14.9146 122.149 15.1929 122.468 15.3947C122.786 15.5965 123.195 15.6974 123.697 15.6974C124.039 15.6974 124.363 15.6516 124.669 15.5598C124.981 15.462 125.256 15.3213 125.495 15.1378C125.739 14.9483 125.935 14.7189 126.082 14.4498H130.706C130.375 15.4283 129.852 16.2784 129.137 17.0001C128.427 17.7157 127.553 18.2722 126.513 18.6697C125.48 19.0612 124.308 19.2569 123 19.2569ZM132.001 19L134.35 4.90909H139.267L138.827 7.58783H138.973C139.395 6.59706 139.924 5.87234 140.56 5.41365C141.197 4.95496 141.891 4.72562 142.643 4.72562C142.863 4.72562 143.074 4.74396 143.276 4.78066C143.484 4.81124 143.689 4.85405 143.891 4.90909L143.157 9.23911C142.918 9.14737 142.622 9.08316 142.267 9.04646C141.912 9.00365 141.597 8.98224 141.322 8.98224C140.833 8.98224 140.374 9.09539 139.946 9.32167C139.524 9.54184 139.163 9.85375 138.863 10.2574C138.57 10.6549 138.374 11.1228 138.276 11.661L137.065 19H132.001ZM149.147 19.2569C147.618 19.2569 146.358 18.9541 145.368 18.3487C144.377 17.7371 143.683 16.887 143.285 15.7984C142.888 14.7036 142.811 13.4346 143.056 11.9912C143.288 10.5479 143.784 9.28192 144.542 8.1933C145.306 7.09856 146.285 6.24846 147.477 5.64299C148.676 5.03141 150.04 4.72562 151.569 4.72562C152.951 4.72562 154.104 4.97637 155.028 5.47787C155.957 5.97325 156.621 6.67657 157.018 7.58783C157.422 8.49298 157.526 9.55713 157.33 10.7803H152.633C152.688 10.0464 152.569 9.48374 152.275 9.09233C151.988 8.70092 151.569 8.50521 151.019 8.50521C150.566 8.50521 150.15 8.63364 149.771 8.89051C149.398 9.14126 149.077 9.5235 148.808 10.0372C148.545 10.5448 148.352 11.1839 148.23 11.9545C148.107 12.7251 148.092 13.3673 148.184 13.881C148.282 14.3887 148.471 14.7709 148.753 15.0278C149.04 15.2785 149.404 15.4039 149.844 15.4039C150.224 15.4039 150.572 15.3183 150.89 15.147C151.214 14.9697 151.493 14.7128 151.725 14.3764C151.963 14.0339 152.144 13.6181 152.266 13.1288H156.963C156.731 14.3764 156.263 15.4589 155.56 16.3763C154.856 17.2937 153.96 18.0031 152.872 18.5046C151.783 19.0061 150.542 19.2569 149.147 19.2569ZM164.777 19.2569C163.272 19.2569 162.025 18.9694 161.034 18.3945C160.043 17.8135 159.346 16.9818 158.942 15.8993C158.539 14.8106 158.465 13.508 158.722 11.9912C158.967 10.5357 159.471 9.26357 160.236 8.17495C161.007 7.08633 161.976 6.23929 163.144 5.63382C164.318 5.02835 165.633 4.72562 167.089 4.72562C168.153 4.72562 169.086 4.89074 169.887 5.221C170.694 5.55126 171.351 6.03135 171.859 6.66128C172.367 7.29121 172.709 8.05264 172.887 8.94555C173.07 9.83235 173.07 10.8353 172.887 11.9545L172.703 13.1288H160.117L160.557 10.34H168.483C168.544 9.93632 168.505 9.5816 168.364 9.27581C168.229 8.9639 168.012 8.72232 167.713 8.55108C167.419 8.37372 167.064 8.28504 166.648 8.28504C166.233 8.28504 165.841 8.37372 165.474 8.55108C165.113 8.72844 164.804 8.97613 164.548 9.29415C164.297 9.61218 164.129 9.98524 164.043 10.4134L163.493 13.349C163.419 13.8015 163.447 14.2052 163.575 14.5599C163.704 14.9146 163.927 15.1929 164.245 15.3947C164.563 15.5965 164.973 15.6974 165.474 15.6974C165.817 15.6974 166.141 15.6516 166.447 15.5598C166.758 15.462 167.034 15.3213 167.272 15.1378C167.517 14.9483 167.713 14.7189 167.859 14.4498H172.483C172.153 15.4283 171.63 16.2784 170.914 17.0001C170.205 17.7157 169.33 18.2722 168.29 18.6697C167.257 19.0612 166.086 19.2569 164.777 19.2569Z" fill="#3900B3"/>
</svg>
